<mxfile host="65bd71144e">
    <diagram id="UKlGF6lhkl7mg2qdfQSS" name="Page-1">
        <mxGraphModel dx="802" dy="1512" grid="1" gridSize="10" guides="1" tooltips="1" connect="1" arrows="1" fold="1" page="1" pageScale="1" pageWidth="827" pageHeight="1169" math="0" shadow="0">
            <root>
                <mxCell id="0"/>
                <mxCell id="1" parent="0"/>
                <mxCell id="2" value="&lt;font style=&quot;font-size: 48px;&quot;&gt;Items&lt;/font&gt;" style="rounded=1;whiteSpace=wrap;html=1;fillColor=#f0a30a;fontColor=#000000;strokeColor=#BD7000;" parent="1" vertex="1">
                    <mxGeometry x="470" y="10" width="230" height="80" as="geometry"/>
                </mxCell>
                <mxCell id="4" value="&lt;font style=&quot;font-size: 48px;&quot;&gt;Accounts&lt;/font&gt;" style="rounded=1;whiteSpace=wrap;html=1;fontSize=36;fillColor=#6a00ff;fontColor=#ffffff;strokeColor=#3700CC;" parent="1" vertex="1">
                    <mxGeometry x="11" y="190" width="240" height="100" as="geometry"/>
                </mxCell>
                <mxCell id="5" value="Orders" style="rounded=1;whiteSpace=wrap;html=1;fontSize=36;fillColor=#008a00;strokeColor=#005700;fontColor=#ffffff;" parent="1" vertex="1">
                    <mxGeometry x="510" y="200" width="150" height="80" as="geometry"/>
                </mxCell>
                <mxCell id="6" value="Cart" style="rounded=1;whiteSpace=wrap;html=1;fontSize=36;fillColor=#e3c800;fontColor=#000000;strokeColor=#B09500;" parent="1" vertex="1">
                    <mxGeometry x="30" y="20" width="160" height="60" as="geometry"/>
                </mxCell>
                <mxCell id="16" value="" style="endArrow=classic;html=1;fontSize=36;exitX=0.5;exitY=0;exitDx=0;exitDy=0;entryX=0.5;entryY=1;entryDx=0;entryDy=0;" parent="1" source="5" target="2" edge="1">
                    <mxGeometry width="50" height="50" relative="1" as="geometry">
                        <mxPoint x="310" y="280" as="sourcePoint"/>
                        <mxPoint x="120" y="120" as="targetPoint"/>
                        <Array as="points"/>
                    </mxGeometry>
                </mxCell>
                <mxCell id="17" value="" style="endArrow=classic;html=1;fontSize=36;exitX=1;exitY=0.5;exitDx=0;exitDy=0;entryX=0;entryY=0.5;entryDx=0;entryDy=0;" parent="1" source="6" target="2" edge="1">
                    <mxGeometry width="50" height="50" relative="1" as="geometry">
                        <mxPoint x="310" y="280" as="sourcePoint"/>
                        <mxPoint x="510" y="70" as="targetPoint"/>
                        <Array as="points"/>
                    </mxGeometry>
                </mxCell>
                <mxCell id="22" value="" style="endArrow=classic;html=1;fontSize=36;exitX=0.546;exitY=1.038;exitDx=0;exitDy=0;exitPerimeter=0;entryX=0.448;entryY=-0.026;entryDx=0;entryDy=0;entryPerimeter=0;" parent="1" source="6" target="4" edge="1">
                    <mxGeometry width="50" height="50" relative="1" as="geometry">
                        <mxPoint x="330" y="280" as="sourcePoint"/>
                        <mxPoint x="120" y="180" as="targetPoint"/>
                    </mxGeometry>
                </mxCell>
                <mxCell id="23" value="" style="endArrow=classic;html=1;fontSize=36;exitX=0;exitY=0.5;exitDx=0;exitDy=0;entryX=1;entryY=0.5;entryDx=0;entryDy=0;" parent="1" source="5" target="4" edge="1">
                    <mxGeometry width="50" height="50" relative="1" as="geometry">
                        <mxPoint x="330" y="280" as="sourcePoint"/>
                        <mxPoint x="380" y="230" as="targetPoint"/>
                    </mxGeometry>
                </mxCell>
                <mxCell id="24" value="" style="endArrow=none;dashed=1;html=1;" parent="1" edge="1">
                    <mxGeometry width="50" height="50" relative="1" as="geometry">
                        <mxPoint y="340" as="sourcePoint"/>
                        <mxPoint x="720" as="targetPoint"/>
                        <Array as="points">
                            <mxPoint x="720" y="340"/>
                        </Array>
                    </mxGeometry>
                </mxCell>
                <mxCell id="26" value="&lt;font style=&quot;font-size: 36px;&quot;&gt;Database Rough Diagram&lt;/font&gt;" style="text;html=1;strokeColor=none;fillColor=none;spacing=5;spacingTop=-20;whiteSpace=wrap;overflow=hidden;rounded=0;" parent="1" vertex="1">
                    <mxGeometry x="100" y="300" width="440" height="30" as="geometry"/>
                </mxCell>
                <mxCell id="27" value="&lt;div style=&quot;background-color: rgb(13, 17, 23); line-height: 19px;&quot;&gt;&lt;div style=&quot;line-height: 19px;&quot;&gt;&lt;div style=&quot;color: rgb(201, 209, 217); font-family: &amp;quot;Fira Code&amp;quot;, &amp;quot;Droid Sans Mono&amp;quot;, &amp;quot;monospace&amp;quot;, monospace, &amp;quot;Droid Sans Mono&amp;quot;, &amp;quot;monospace&amp;quot;, monospace; font-size: 14px; font-weight: normal;&quot;&gt;&lt;span style=&quot;color: #ec8e2c;&quot;&gt;create&lt;/span&gt; &lt;span style=&quot;color: #ec8e2c;&quot;&gt;table&lt;/span&gt; items (&lt;/div&gt;&lt;div style=&quot;color: rgb(201, 209, 217); font-family: &amp;quot;Fira Code&amp;quot;, &amp;quot;Droid Sans Mono&amp;quot;, &amp;quot;monospace&amp;quot;, monospace, &amp;quot;Droid Sans Mono&amp;quot;, &amp;quot;monospace&amp;quot;, monospace; font-size: 14px; font-weight: normal;&quot;&gt;  item_id &lt;span style=&quot;color: #79c0ff;&quot;&gt;UUID&lt;/span&gt; &lt;span style=&quot;color: #ec8e2c;&quot;&gt;DEFAULT&lt;/span&gt; gen_random_uuid() &lt;span style=&quot;color: #ec8e2c;&quot;&gt;PRIMARY&lt;/span&gt; &lt;span style=&quot;color: #ec8e2c;&quot;&gt;KEY&lt;/span&gt;,&lt;/div&gt;&lt;div style=&quot;color: rgb(201, 209, 217); font-family: &amp;quot;Fira Code&amp;quot;, &amp;quot;Droid Sans Mono&amp;quot;, &amp;quot;monospace&amp;quot;, monospace, &amp;quot;Droid Sans Mono&amp;quot;, &amp;quot;monospace&amp;quot;, monospace; font-size: 14px; font-weight: normal;&quot;&gt;  item_name &lt;span style=&quot;color: #ec8e2c;&quot;&gt;VARCHAR&lt;/span&gt;(&lt;span style=&quot;color: #79c0ff;&quot;&gt;50&lt;/span&gt;) &lt;span style=&quot;color: #ec8e2c;&quot;&gt;NOT&lt;/span&gt; &lt;span style=&quot;color: #ec8e2c;&quot;&gt;NULL&lt;/span&gt;,&lt;/div&gt;&lt;div style=&quot;color: rgb(201, 209, 217); font-family: &amp;quot;Fira Code&amp;quot;, &amp;quot;Droid Sans Mono&amp;quot;, &amp;quot;monospace&amp;quot;, monospace, &amp;quot;Droid Sans Mono&amp;quot;, &amp;quot;monospace&amp;quot;, monospace; font-size: 14px; font-weight: normal;&quot;&gt;  item_description &lt;span style=&quot;color: #ec8e2c;&quot;&gt;TEXT&lt;/span&gt;,&lt;/div&gt;&lt;div style=&quot;color: rgb(201, 209, 217); font-family: &amp;quot;Fira Code&amp;quot;, &amp;quot;Droid Sans Mono&amp;quot;, &amp;quot;monospace&amp;quot;, monospace, &amp;quot;Droid Sans Mono&amp;quot;, &amp;quot;monospace&amp;quot;, monospace; font-size: 14px; font-weight: normal;&quot;&gt;  item_price &lt;span style=&quot;color: #ec8e2c;&quot;&gt;INT&lt;/span&gt; &lt;span style=&quot;color: #ec8e2c;&quot;&gt;NOT&lt;/span&gt; &lt;span style=&quot;color: #ec8e2c;&quot;&gt;NULL&lt;/span&gt;,&lt;/div&gt;&lt;div style=&quot;color: rgb(201, 209, 217); font-family: &amp;quot;Fira Code&amp;quot;, &amp;quot;Droid Sans Mono&amp;quot;, &amp;quot;monospace&amp;quot;, monospace, &amp;quot;Droid Sans Mono&amp;quot;, &amp;quot;monospace&amp;quot;, monospace; font-size: 14px; font-weight: normal;&quot;&gt;  item_category &lt;span style=&quot;color: #ec8e2c;&quot;&gt;VARCHAR&lt;/span&gt;(&lt;span style=&quot;color: #79c0ff;&quot;&gt;20&lt;/span&gt;) &lt;span style=&quot;color: #ec8e2c;&quot;&gt;NOT&lt;/span&gt; &lt;span style=&quot;color: #ec8e2c;&quot;&gt;NULL&lt;/span&gt;,&lt;/div&gt;&lt;div style=&quot;color: rgb(201, 209, 217); font-family: &amp;quot;Fira Code&amp;quot;, &amp;quot;Droid Sans Mono&amp;quot;, &amp;quot;monospace&amp;quot;, monospace, &amp;quot;Droid Sans Mono&amp;quot;, &amp;quot;monospace&amp;quot;, monospace; font-size: 14px; font-weight: normal;&quot;&gt;  item_rating &lt;span style=&quot;color: #ec8e2c;&quot;&gt;INT&lt;/span&gt;,&lt;/div&gt;&lt;div style=&quot;color: rgb(201, 209, 217); font-family: &amp;quot;Fira Code&amp;quot;, &amp;quot;Droid Sans Mono&amp;quot;, &amp;quot;monospace&amp;quot;, monospace, &amp;quot;Droid Sans Mono&amp;quot;, &amp;quot;monospace&amp;quot;, monospace; font-size: 14px; font-weight: normal;&quot;&gt;  item_reviews &lt;span style=&quot;color: #ec8e2c;&quot;&gt;INT&lt;/span&gt;,&lt;/div&gt;&lt;div style=&quot;color: rgb(201, 209, 217); font-family: &amp;quot;Fira Code&amp;quot;, &amp;quot;Droid Sans Mono&amp;quot;, &amp;quot;monospace&amp;quot;, monospace, &amp;quot;Droid Sans Mono&amp;quot;, &amp;quot;monospace&amp;quot;, monospace; font-size: 14px; font-weight: normal;&quot;&gt;  item_image_url &lt;span style=&quot;color: #ec8e2c;&quot;&gt;VARCHAR&lt;/span&gt;(&lt;span style=&quot;color: #79c0ff;&quot;&gt;1000&lt;/span&gt;),&lt;/div&gt;&lt;div style=&quot;&quot;&gt;&lt;font face=&quot;Fira Code, Droid Sans Mono, monospace, monospace, Droid Sans Mono, monospace, monospace&quot; color=&quot;#c9d1d9&quot;&gt;&lt;span style=&quot;font-size: 14px;&quot;&gt;item_quantity&amp;nbsp;&lt;/span&gt;&lt;/font&gt;&lt;span style=&quot;font-family: &amp;quot;Fira Code&amp;quot;, &amp;quot;Droid Sans Mono&amp;quot;, &amp;quot;monospace&amp;quot;, monospace, &amp;quot;Droid Sans Mono&amp;quot;, &amp;quot;monospace&amp;quot;, monospace; font-size: 14px; color: rgb(236, 142, 44);&quot;&gt;INT&lt;/span&gt;&lt;span style=&quot;color: rgb(201, 209, 217); font-family: &amp;quot;Fira Code&amp;quot;, &amp;quot;Droid Sans Mono&amp;quot;, &amp;quot;monospace&amp;quot;, monospace, &amp;quot;Droid Sans Mono&amp;quot;, &amp;quot;monospace&amp;quot;, monospace; font-size: 14px;&quot;&gt;&amp;nbsp;&lt;/span&gt;&lt;span style=&quot;font-family: &amp;quot;Fira Code&amp;quot;, &amp;quot;Droid Sans Mono&amp;quot;, &amp;quot;monospace&amp;quot;, monospace, &amp;quot;Droid Sans Mono&amp;quot;, &amp;quot;monospace&amp;quot;, monospace; font-size: 14px; color: rgb(236, 142, 44);&quot;&gt;NOT&lt;/span&gt;&lt;span style=&quot;color: rgb(201, 209, 217); font-family: &amp;quot;Fira Code&amp;quot;, &amp;quot;Droid Sans Mono&amp;quot;, &amp;quot;monospace&amp;quot;, monospace, &amp;quot;Droid Sans Mono&amp;quot;, &amp;quot;monospace&amp;quot;, monospace; font-size: 14px;&quot;&gt;&amp;nbsp;&lt;/span&gt;&lt;span style=&quot;font-family: &amp;quot;Fira Code&amp;quot;, &amp;quot;Droid Sans Mono&amp;quot;, &amp;quot;monospace&amp;quot;, monospace, &amp;quot;Droid Sans Mono&amp;quot;, &amp;quot;monospace&amp;quot;, monospace; font-size: 14px; color: rgb(236, 142, 44);&quot;&gt;NULL&lt;/span&gt;&lt;font face=&quot;Fira Code, Droid Sans Mono, monospace, monospace, Droid Sans Mono, monospace, monospace&quot; color=&quot;#c9d1d9&quot;&gt;&lt;span style=&quot;font-size: 14px;&quot;&gt;&amp;nbsp;&lt;/span&gt;&lt;/font&gt;&lt;span style=&quot;color: rgb(236, 142, 44); font-family: &amp;quot;Fira Code&amp;quot;, &amp;quot;Droid Sans Mono&amp;quot;, &amp;quot;monospace&amp;quot;, monospace, &amp;quot;Droid Sans Mono&amp;quot;, &amp;quot;monospace&amp;quot;, monospace; font-size: 14px;&quot;&gt;DEFAULT&lt;/span&gt;&lt;font face=&quot;Fira Code, Droid Sans Mono, monospace, monospace, Droid Sans Mono, monospace, monospace&quot; color=&quot;#c9d1d9&quot;&gt;&lt;span style=&quot;font-size: 14px;&quot;&gt;&amp;nbsp;&lt;/span&gt;&lt;/font&gt;&lt;span style=&quot;color: rgb(121, 192, 255); font-family: &amp;quot;Fira Code&amp;quot;, &amp;quot;Droid Sans Mono&amp;quot;, &amp;quot;monospace&amp;quot;, monospace, &amp;quot;Droid Sans Mono&amp;quot;, &amp;quot;monospace&amp;quot;, monospace; font-size: 14px;&quot;&gt;0&lt;/span&gt;&lt;br&gt;&lt;/div&gt;&lt;div style=&quot;color: rgb(201, 209, 217); font-family: &amp;quot;Fira Code&amp;quot;, &amp;quot;Droid Sans Mono&amp;quot;, &amp;quot;monospace&amp;quot;, monospace, &amp;quot;Droid Sans Mono&amp;quot;, &amp;quot;monospace&amp;quot;, monospace; font-size: 14px; font-weight: normal;&quot;&gt;);&lt;/div&gt;&lt;/div&gt;&lt;/div&gt;" style="text;html=1;strokeColor=none;fillColor=none;align=center;verticalAlign=middle;whiteSpace=wrap;rounded=0;" parent="1" vertex="1">
                    <mxGeometry x="350" y="480" width="320" height="230" as="geometry"/>
                </mxCell>
                <mxCell id="28" value="&lt;div style=&quot;background-color: rgb(13, 17, 23); font-family: &amp;quot;Fira Code&amp;quot;, &amp;quot;Droid Sans Mono&amp;quot;, &amp;quot;monospace&amp;quot;, monospace, &amp;quot;Droid Sans Mono&amp;quot;, &amp;quot;monospace&amp;quot;, monospace; font-weight: normal; font-size: 14px; line-height: 19px; color: rgb(230, 237, 243);&quot;&gt;&lt;div style=&quot;color: rgb(201, 209, 217); line-height: 19px;&quot;&gt;&lt;div style=&quot;line-height: 19px;&quot;&gt;&lt;div&gt;&lt;span style=&quot;color: #ec8e2c;&quot;&gt;create&lt;/span&gt; &lt;span style=&quot;color: #ec8e2c;&quot;&gt;table&lt;/span&gt; &lt;span style=&quot;color: #ec8e2c;&quot;&gt;account&lt;/span&gt; (&lt;/div&gt;&lt;div&gt;    &lt;span style=&quot;color: #79c0ff;&quot;&gt;user_id&lt;/span&gt; &lt;span style=&quot;color: #79c0ff;&quot;&gt;UUID&lt;/span&gt; &lt;span style=&quot;color: #ec8e2c;&quot;&gt;DEFAULT&lt;/span&gt; gen_random_uuid() &lt;span style=&quot;color: #ec8e2c;&quot;&gt;PRIMARY&lt;/span&gt; &lt;span style=&quot;color: #ec8e2c;&quot;&gt;KEY&lt;/span&gt;,&lt;/div&gt;&lt;div&gt;    email &lt;span style=&quot;color: #ec8e2c;&quot;&gt;VARCHAR&lt;/span&gt;(&lt;span style=&quot;color: #79c0ff;&quot;&gt;50&lt;/span&gt;) &lt;span style=&quot;color: #ec8e2c;&quot;&gt;UNIQUE&lt;/span&gt; &lt;span style=&quot;color: #ec8e2c;&quot;&gt;NOT&lt;/span&gt; &lt;span style=&quot;color: #ec8e2c;&quot;&gt;NULL&lt;/span&gt;,&lt;/div&gt;&lt;div&gt;    &lt;span style=&quot;color: #ec8e2c;&quot;&gt;password&lt;/span&gt; &lt;span style=&quot;color: #ec8e2c;&quot;&gt;VARCHAR&lt;/span&gt;(&lt;span style=&quot;color: #79c0ff;&quot;&gt;50&lt;/span&gt;) &lt;span style=&quot;color: #ec8e2c;&quot;&gt;NOT&lt;/span&gt; &lt;span style=&quot;color: #ec8e2c;&quot;&gt;NULL&lt;/span&gt;,&lt;/div&gt;&lt;div&gt;    first_name &lt;span style=&quot;color: #ec8e2c;&quot;&gt;VARCHAR&lt;/span&gt;(&lt;span style=&quot;color: #79c0ff;&quot;&gt;50&lt;/span&gt;) &lt;span style=&quot;color: #ec8e2c;&quot;&gt;NOT&lt;/span&gt; &lt;span style=&quot;color: #ec8e2c;&quot;&gt;NULL&lt;/span&gt;,&lt;/div&gt;&lt;div&gt;    last_name &lt;span style=&quot;color: #ec8e2c;&quot;&gt;VARCHAR&lt;/span&gt;(&lt;span style=&quot;color: #79c0ff;&quot;&gt;50&lt;/span&gt;) &lt;span style=&quot;color: #ec8e2c;&quot;&gt;NOT&lt;/span&gt; &lt;span style=&quot;color: #ec8e2c;&quot;&gt;NULL&lt;/span&gt;,&lt;/div&gt;&lt;div&gt;    &lt;span style=&quot;color: #79c0ff;&quot;&gt;age&lt;/span&gt; &lt;span style=&quot;color: #ec8e2c;&quot;&gt;INT&lt;/span&gt; &lt;span style=&quot;color: #ec8e2c;&quot;&gt;NOT&lt;/span&gt; &lt;span style=&quot;color: #ec8e2c;&quot;&gt;NULL&lt;/span&gt;,&lt;/div&gt;&lt;div&gt;    gender &lt;span style=&quot;color: #ec8e2c;&quot;&gt;VARCHAR&lt;/span&gt;(&lt;span style=&quot;color: #79c0ff;&quot;&gt;50&lt;/span&gt;) &lt;span style=&quot;color: #ec8e2c;&quot;&gt;NOT&lt;/span&gt; &lt;span style=&quot;color: #ec8e2c;&quot;&gt;NULL&lt;/span&gt;,&lt;/div&gt;&lt;div&gt;    country &lt;span style=&quot;color: #ec8e2c;&quot;&gt;VARCHAR&lt;/span&gt;(&lt;span style=&quot;color: #79c0ff;&quot;&gt;50&lt;/span&gt;) &lt;span style=&quot;color: #ec8e2c;&quot;&gt;NOT&lt;/span&gt; &lt;span style=&quot;color: #ec8e2c;&quot;&gt;NULL&lt;/span&gt;,&lt;/div&gt;&lt;div&gt;    city &lt;span style=&quot;color: #ec8e2c;&quot;&gt;VARCHAR&lt;/span&gt;(&lt;span style=&quot;color: #79c0ff;&quot;&gt;50&lt;/span&gt;) &lt;span style=&quot;color: #ec8e2c;&quot;&gt;NOT&lt;/span&gt; &lt;span style=&quot;color: #ec8e2c;&quot;&gt;NULL&lt;/span&gt;,&lt;/div&gt;&lt;div&gt;    street_address &lt;span style=&quot;color: #ec8e2c;&quot;&gt;VARCHAR&lt;/span&gt;(&lt;span style=&quot;color: #79c0ff;&quot;&gt;50&lt;/span&gt;) &lt;span style=&quot;color: #ec8e2c;&quot;&gt;NOT&lt;/span&gt; &lt;span style=&quot;color: #ec8e2c;&quot;&gt;NULL&lt;/span&gt;,&lt;/div&gt;&lt;div&gt;    postal_code &lt;span style=&quot;color: #ec8e2c;&quot;&gt;VARCHAR&lt;/span&gt;(&lt;span style=&quot;color: #79c0ff;&quot;&gt;50&lt;/span&gt;) &lt;span style=&quot;color: #ec8e2c;&quot;&gt;NOT&lt;/span&gt; &lt;span style=&quot;color: #ec8e2c;&quot;&gt;NULL&lt;/span&gt;,&lt;/div&gt;&lt;div&gt;    phone_number &lt;span style=&quot;color: #ec8e2c;&quot;&gt;VARCHAR&lt;/span&gt;(&lt;span style=&quot;color: #79c0ff;&quot;&gt;50&lt;/span&gt;) &lt;span style=&quot;color: #ec8e2c;&quot;&gt;NOT&lt;/span&gt; &lt;span style=&quot;color: #ec8e2c;&quot;&gt;NULL&lt;/span&gt;,&lt;/div&gt;&lt;div&gt;    birthdate &lt;span style=&quot;color: #ec8e2c;&quot;&gt;DATE&lt;/span&gt; &lt;span style=&quot;color: #ec8e2c;&quot;&gt;NOT&lt;/span&gt; &lt;span style=&quot;color: #ec8e2c;&quot;&gt;NULL&lt;/span&gt;,&lt;/div&gt;&lt;div&gt;    registration_date &lt;span style=&quot;color: #ec8e2c;&quot;&gt;DATE&lt;/span&gt; &lt;span style=&quot;color: #ec8e2c;&quot;&gt;DEFAULT&lt;/span&gt; &lt;span style=&quot;color: #ec8e2c;&quot;&gt;CURRENT_DATE&lt;/span&gt;,&lt;/div&gt;&lt;div&gt;    profile_picture_address &lt;span style=&quot;color: #ec8e2c;&quot;&gt;VARCHAR&lt;/span&gt;(&lt;span style=&quot;color: #79c0ff;&quot;&gt;1000&lt;/span&gt;)&lt;/div&gt;&lt;div&gt;);&lt;/div&gt;&lt;/div&gt;&lt;/div&gt;&lt;/div&gt;" style="text;html=1;strokeColor=none;fillColor=none;align=center;verticalAlign=middle;whiteSpace=wrap;rounded=0;" parent="1" vertex="1">
                    <mxGeometry y="340" width="350" height="360" as="geometry"/>
                </mxCell>
                <mxCell id="29" value="&lt;div style=&quot;background-color: rgb(13, 17, 23); line-height: 19px;&quot;&gt;&lt;div style=&quot;line-height: 19px;&quot;&gt;&lt;div style=&quot;color: rgb(201, 209, 217); font-family: &amp;quot;Fira Code&amp;quot;, &amp;quot;Droid Sans Mono&amp;quot;, &amp;quot;monospace&amp;quot;, monospace, &amp;quot;Droid Sans Mono&amp;quot;, &amp;quot;monospace&amp;quot;, monospace; font-size: 14px; font-weight: normal;&quot;&gt;&lt;span style=&quot;color: #ec8e2c;&quot;&gt;create&lt;/span&gt; &lt;span style=&quot;color: #ec8e2c;&quot;&gt;table&lt;/span&gt; transactions (&lt;/div&gt;&lt;div style=&quot;color: rgb(201, 209, 217); font-family: &amp;quot;Fira Code&amp;quot;, &amp;quot;Droid Sans Mono&amp;quot;, &amp;quot;monospace&amp;quot;, monospace, &amp;quot;Droid Sans Mono&amp;quot;, &amp;quot;monospace&amp;quot;, monospace; font-size: 14px; font-weight: normal;&quot;&gt;transaction_id &lt;span style=&quot;color: #79c0ff;&quot;&gt;UUID&lt;/span&gt; &lt;span style=&quot;color: #ec8e2c;&quot;&gt;DEFAULT&lt;/span&gt; gen_random_uuid() &lt;span style=&quot;color: #ec8e2c;&quot;&gt;PRIMARY&lt;/span&gt; &lt;span style=&quot;color: #ec8e2c;&quot;&gt;KEY&lt;/span&gt;,&lt;/div&gt;&lt;div style=&quot;color: rgb(201, 209, 217); font-family: &amp;quot;Fira Code&amp;quot;, &amp;quot;Droid Sans Mono&amp;quot;, &amp;quot;monospace&amp;quot;, monospace, &amp;quot;Droid Sans Mono&amp;quot;, &amp;quot;monospace&amp;quot;, monospace; font-size: 14px; font-weight: normal;&quot;&gt;transaction_date &lt;span style=&quot;color: #ec8e2c;&quot;&gt;DATE&lt;/span&gt; &lt;span style=&quot;color: #ec8e2c;&quot;&gt;NOT&lt;/span&gt; &lt;span style=&quot;color: #ec8e2c;&quot;&gt;NULL&lt;/span&gt;,&lt;/div&gt;&lt;div style=&quot;color: rgb(201, 209, 217); font-family: &amp;quot;Fira Code&amp;quot;, &amp;quot;Droid Sans Mono&amp;quot;, &amp;quot;monospace&amp;quot;, monospace, &amp;quot;Droid Sans Mono&amp;quot;, &amp;quot;monospace&amp;quot;, monospace; font-size: 14px; font-weight: normal;&quot;&gt;customer_id &lt;span style=&quot;color: #79c0ff;&quot;&gt;UUID&lt;/span&gt; &lt;span style=&quot;color: #ec8e2c;&quot;&gt;NOT&lt;/span&gt; &lt;span style=&quot;color: #ec8e2c;&quot;&gt;NULL&lt;/span&gt; &lt;span style=&quot;color: #ec8e2c;&quot;&gt;REFERENCES&lt;/span&gt; &lt;span style=&quot;color: #ec8e2c;&quot;&gt;account&lt;/span&gt;(&lt;span style=&quot;color: #79c0ff;&quot;&gt;user_id&lt;/span&gt;),&lt;/div&gt;&lt;div style=&quot;color: rgb(201, 209, 217); font-family: &amp;quot;Fira Code&amp;quot;, &amp;quot;Droid Sans Mono&amp;quot;, &amp;quot;monospace&amp;quot;, monospace, &amp;quot;Droid Sans Mono&amp;quot;, &amp;quot;monospace&amp;quot;, monospace; font-size: 14px; font-weight: normal;&quot;&gt;product_id &lt;span style=&quot;color: #79c0ff;&quot;&gt;UUID&lt;/span&gt; &lt;span style=&quot;color: #ec8e2c;&quot;&gt;NOT&lt;/span&gt; &lt;span style=&quot;color: #ec8e2c;&quot;&gt;NULL&lt;/span&gt; &lt;span style=&quot;color: #ec8e2c;&quot;&gt;REFERENCES&lt;/span&gt; items(item_id),&lt;/div&gt;&lt;div style=&quot;color: rgb(201, 209, 217); font-family: &amp;quot;Fira Code&amp;quot;, &amp;quot;Droid Sans Mono&amp;quot;, &amp;quot;monospace&amp;quot;, monospace, &amp;quot;Droid Sans Mono&amp;quot;, &amp;quot;monospace&amp;quot;, monospace; font-size: 14px; font-weight: normal;&quot;&gt;total_price &lt;span style=&quot;color: #ec8e2c;&quot;&gt;INT&lt;/span&gt; &lt;span style=&quot;color: #ec8e2c;&quot;&gt;NOT&lt;/span&gt; &lt;span style=&quot;color: #ec8e2c;&quot;&gt;NULL&lt;/span&gt;,&lt;/div&gt;&lt;div style=&quot;color: rgb(201, 209, 217); font-family: &amp;quot;Fira Code&amp;quot;, &amp;quot;Droid Sans Mono&amp;quot;, &amp;quot;monospace&amp;quot;, monospace, &amp;quot;Droid Sans Mono&amp;quot;, &amp;quot;monospace&amp;quot;, monospace; font-size: 14px; font-weight: normal;&quot;&gt;payment_method &lt;span style=&quot;color: #ec8e2c;&quot;&gt;VARCHAR&lt;/span&gt;(&lt;span style=&quot;color: #79c0ff;&quot;&gt;50&lt;/span&gt;) &lt;span style=&quot;color: #ec8e2c;&quot;&gt;NOT&lt;/span&gt; &lt;span style=&quot;color: #ec8e2c;&quot;&gt;NULL&lt;/span&gt;,&lt;/div&gt;&lt;div style=&quot;color: rgb(201, 209, 217); font-family: &amp;quot;Fira Code&amp;quot;, &amp;quot;Droid Sans Mono&amp;quot;, &amp;quot;monospace&amp;quot;, monospace, &amp;quot;Droid Sans Mono&amp;quot;, &amp;quot;monospace&amp;quot;, monospace; font-size: 14px; font-weight: normal;&quot;&gt;payment_status &lt;span style=&quot;color: #ec8e2c;&quot;&gt;VARCHAR&lt;/span&gt;(&lt;span style=&quot;color: #79c0ff;&quot;&gt;8&lt;/span&gt;) &lt;span style=&quot;color: #ec8e2c;&quot;&gt;NOT&lt;/span&gt; &lt;span style=&quot;color: #ec8e2c;&quot;&gt;NULL&lt;/span&gt;,&lt;/div&gt;&lt;div style=&quot;color: rgb(201, 209, 217); font-family: &amp;quot;Fira Code&amp;quot;, &amp;quot;Droid Sans Mono&amp;quot;, &amp;quot;monospace&amp;quot;, monospace, &amp;quot;Droid Sans Mono&amp;quot;, &amp;quot;monospace&amp;quot;, monospace; font-size: 14px; font-weight: normal;&quot;&gt;city &lt;span style=&quot;color: #ec8e2c;&quot;&gt;VARCHAR&lt;/span&gt;(&lt;span style=&quot;color: #79c0ff;&quot;&gt;50&lt;/span&gt;) &lt;span style=&quot;color: #ec8e2c;&quot;&gt;NOT&lt;/span&gt; &lt;span style=&quot;color: #ec8e2c;&quot;&gt;NULL&lt;/span&gt;,&lt;/div&gt;&lt;div style=&quot;color: rgb(201, 209, 217); font-family: &amp;quot;Fira Code&amp;quot;, &amp;quot;Droid Sans Mono&amp;quot;, &amp;quot;monospace&amp;quot;, monospace, &amp;quot;Droid Sans Mono&amp;quot;, &amp;quot;monospace&amp;quot;, monospace; font-size: 14px; font-weight: normal;&quot;&gt;&lt;span style=&quot;color: #ec8e2c;&quot;&gt;state&lt;/span&gt; &lt;span style=&quot;color: #ec8e2c;&quot;&gt;VARCHAR&lt;/span&gt;(&lt;span style=&quot;color: #79c0ff;&quot;&gt;50&lt;/span&gt;) &lt;span style=&quot;color: #ec8e2c;&quot;&gt;NOT&lt;/span&gt; &lt;span style=&quot;color: #ec8e2c;&quot;&gt;NULL&lt;/span&gt;,&lt;/div&gt;&lt;div style=&quot;color: rgb(201, 209, 217); font-family: &amp;quot;Fira Code&amp;quot;, &amp;quot;Droid Sans Mono&amp;quot;, &amp;quot;monospace&amp;quot;, monospace, &amp;quot;Droid Sans Mono&amp;quot;, &amp;quot;monospace&amp;quot;, monospace; font-size: 14px; font-weight: normal;&quot;&gt;country &lt;span style=&quot;color: #ec8e2c;&quot;&gt;VARCHAR&lt;/span&gt;(&lt;span style=&quot;color: #79c0ff;&quot;&gt;50&lt;/span&gt;) &lt;span style=&quot;color: #ec8e2c;&quot;&gt;NOT&lt;/span&gt; &lt;span style=&quot;color: #ec8e2c;&quot;&gt;NULL&lt;/span&gt;,&lt;/div&gt;&lt;div style=&quot;color: rgb(201, 209, 217); font-family: &amp;quot;Fira Code&amp;quot;, &amp;quot;Droid Sans Mono&amp;quot;, &amp;quot;monospace&amp;quot;, monospace, &amp;quot;Droid Sans Mono&amp;quot;, &amp;quot;monospace&amp;quot;, monospace; font-size: 14px; font-weight: normal;&quot;&gt;shipping_cost &lt;span style=&quot;color: #ec8e2c;&quot;&gt;INT&lt;/span&gt; &lt;span style=&quot;color: #ec8e2c;&quot;&gt;NOT&lt;/span&gt; &lt;span style=&quot;color: #ec8e2c;&quot;&gt;NULL&lt;/span&gt;,&lt;/div&gt;&lt;div style=&quot;color: rgb(201, 209, 217); font-family: &amp;quot;Fira Code&amp;quot;, &amp;quot;Droid Sans Mono&amp;quot;, &amp;quot;monospace&amp;quot;, monospace, &amp;quot;Droid Sans Mono&amp;quot;, &amp;quot;monospace&amp;quot;, monospace; font-size: 14px; font-weight: normal;&quot;&gt;tax_rate &lt;span style=&quot;color: #ec8e2c;&quot;&gt;INT&lt;/span&gt; &lt;span style=&quot;color: #ec8e2c;&quot;&gt;NOT&lt;/span&gt; &lt;span style=&quot;color: #ec8e2c;&quot;&gt;NULL&lt;/span&gt;,&lt;/div&gt;&lt;div style=&quot;color: rgb(201, 209, 217); font-family: &amp;quot;Fira Code&amp;quot;, &amp;quot;Droid Sans Mono&amp;quot;, &amp;quot;monospace&amp;quot;, monospace, &amp;quot;Droid Sans Mono&amp;quot;, &amp;quot;monospace&amp;quot;, monospace; font-size: 14px; font-weight: normal;&quot;&gt;tax_amount &lt;span style=&quot;color: #ec8e2c;&quot;&gt;INT&lt;/span&gt; &lt;span style=&quot;color: #ec8e2c;&quot;&gt;NOT&lt;/span&gt; &lt;span style=&quot;color: #ec8e2c;&quot;&gt;NULL,&lt;/span&gt;&lt;/div&gt;&lt;div style=&quot;&quot;&gt;&lt;font face=&quot;Fira Code, Droid Sans Mono, monospace, monospace, Droid Sans Mono, monospace, monospace&quot;&gt;&lt;span style=&quot;font-size: 14px;&quot;&gt;&lt;font color=&quot;#c9d1d9&quot;&gt;card_number &lt;/font&gt;&lt;font color=&quot;#ec8e2c&quot;&gt;VARCHAR(25)&lt;/font&gt;&lt;font color=&quot;#c9d1d9&quot;&gt;,&lt;/font&gt;&lt;/span&gt;&lt;/font&gt;&lt;/div&gt;&lt;div style=&quot;&quot;&gt;&lt;font face=&quot;Fira Code, Droid Sans Mono, monospace, monospace, Droid Sans Mono, monospace, monospace&quot; color=&quot;#c9d1d9&quot;&gt;&lt;span style=&quot;font-size: 14px;&quot;&gt;card_cvv&amp;nbsp;&lt;/span&gt;&lt;/font&gt;&lt;span style=&quot;color: rgb(236, 142, 44); font-family: &amp;quot;Fira Code&amp;quot;, &amp;quot;Droid Sans Mono&amp;quot;, monospace, monospace, &amp;quot;Droid Sans Mono&amp;quot;, monospace, monospace; font-size: 14px;&quot;&gt;VARCHAR&lt;/span&gt;&lt;span style=&quot;color: rgb(236, 142, 44); font-family: &amp;quot;Fira Code&amp;quot;, &amp;quot;Droid Sans Mono&amp;quot;, monospace, monospace, &amp;quot;Droid Sans Mono&amp;quot;, monospace, monospace; font-size: 14px;&quot;&gt;(4&lt;/span&gt;&lt;span style=&quot;color: rgb(236, 142, 44); font-family: &amp;quot;Fira Code&amp;quot;, &amp;quot;Droid Sans Mono&amp;quot;, monospace, monospace, &amp;quot;Droid Sans Mono&amp;quot;, monospace, monospace; font-size: 14px;&quot;&gt;)&lt;/span&gt;&lt;font face=&quot;Fira Code, Droid Sans Mono, monospace, monospace, Droid Sans Mono, monospace, monospace&quot; color=&quot;#c9d1d9&quot;&gt;&lt;span style=&quot;font-size: 14px;&quot;&gt;,&lt;/span&gt;&lt;/font&gt;&lt;/div&gt;&lt;div style=&quot;&quot;&gt;&lt;font face=&quot;Fira Code, Droid Sans Mono, monospace, monospace, Droid Sans Mono, monospace, monospace&quot;&gt;&lt;span style=&quot;font-size: 14px;&quot;&gt;&lt;font color=&quot;#c9d1d9&quot;&gt;card_expiry_date &lt;/font&gt;&lt;font color=&quot;#ec8e2c&quot;&gt;DATE&lt;/font&gt;&lt;/span&gt;&lt;/font&gt;&lt;font face=&quot;Fira Code, Droid Sans Mono, monospace, monospace, Droid Sans Mono, monospace, monospace&quot; color=&quot;#c9d1d9&quot;&gt;&lt;span style=&quot;font-size: 14px;&quot;&gt;,&lt;/span&gt;&lt;/font&gt;&lt;/div&gt;&lt;div style=&quot;&quot;&gt;&lt;font face=&quot;Fira Code, Droid Sans Mono, monospace, monospace, Droid Sans Mono, monospace, monospace&quot; color=&quot;#c9d1d9&quot;&gt;&lt;span style=&quot;font-size: 14px;&quot;&gt;upi_id&amp;nbsp;&lt;/span&gt;&lt;/font&gt;&lt;span style=&quot;color: rgb(236, 142, 44); font-family: &amp;quot;Fira Code&amp;quot;, &amp;quot;Droid Sans Mono&amp;quot;, monospace, monospace, &amp;quot;Droid Sans Mono&amp;quot;, monospace, monospace; font-size: 14px;&quot;&gt;VARCHAR&lt;/span&gt;&lt;span style=&quot;color: rgb(236, 142, 44); font-family: &amp;quot;Fira Code&amp;quot;, &amp;quot;Droid Sans Mono&amp;quot;, monospace, monospace, &amp;quot;Droid Sans Mono&amp;quot;, monospace, monospace; font-size: 14px;&quot;&gt;(50&lt;/span&gt;&lt;span style=&quot;color: rgb(236, 142, 44); font-family: &amp;quot;Fira Code&amp;quot;, &amp;quot;Droid Sans Mono&amp;quot;, monospace, monospace, &amp;quot;Droid Sans Mono&amp;quot;, monospace, monospace; font-size: 14px;&quot;&gt;)&lt;/span&gt;&lt;br&gt;&lt;/div&gt;&lt;div style=&quot;color: rgb(201, 209, 217); font-family: &amp;quot;Fira Code&amp;quot;, &amp;quot;Droid Sans Mono&amp;quot;, &amp;quot;monospace&amp;quot;, monospace, &amp;quot;Droid Sans Mono&amp;quot;, &amp;quot;monospace&amp;quot;, monospace; font-size: 14px; font-weight: normal;&quot;&gt;);&lt;/div&gt;&lt;/div&gt;&lt;/div&gt;" style="text;html=1;strokeColor=none;fillColor=none;align=center;verticalAlign=middle;whiteSpace=wrap;rounded=0;" parent="1" vertex="1">
                    <mxGeometry x="720" y="-80" width="340" height="420" as="geometry"/>
                </mxCell>
                <mxCell id="32" value="" style="shape=flexArrow;endArrow=classic;html=1;fontSize=24;exitX=1;exitY=0.5;exitDx=0;exitDy=0;entryX=0.128;entryY=1.017;entryDx=0;entryDy=0;entryPerimeter=0;" parent="1" source="33" target="2" edge="1">
                    <mxGeometry width="50" height="50" relative="1" as="geometry">
                        <mxPoint x="390" y="210" as="sourcePoint"/>
                        <mxPoint x="440" y="160" as="targetPoint"/>
                    </mxGeometry>
                </mxCell>
                <mxCell id="33" value="&lt;font style=&quot;font-size: 36px;&quot;&gt;Transaction&lt;/font&gt;" style="rounded=1;whiteSpace=wrap;html=1;fontSize=24;fillColor=#ffcd28;gradientColor=#ffa500;strokeColor=#d79b00;" parent="1" vertex="1">
                    <mxGeometry x="250" y="100" width="210" height="80" as="geometry"/>
                </mxCell>
                <mxCell id="34" value="" style="shape=flexArrow;endArrow=classic;startArrow=classic;html=1;fontSize=24;exitX=0.75;exitY=0;exitDx=0;exitDy=0;entryX=0;entryY=0.5;entryDx=0;entryDy=0;" parent="1" source="4" target="33" edge="1">
                    <mxGeometry width="100" height="100" relative="1" as="geometry">
                        <mxPoint x="370" y="240" as="sourcePoint"/>
                        <mxPoint x="470" y="140" as="targetPoint"/>
                    </mxGeometry>
                </mxCell>
                <mxCell id="35" value="&lt;div style=&quot;background-color: rgb(13, 17, 23); font-family: &amp;quot;Fira Code&amp;quot;, &amp;quot;Droid Sans Mono&amp;quot;, &amp;quot;monospace&amp;quot;, monospace, &amp;quot;Droid Sans Mono&amp;quot;, &amp;quot;monospace&amp;quot;, monospace; font-weight: normal; font-size: 14px; line-height: 19px;&quot;&gt;&lt;div style=&quot;color: rgb(201, 209, 217);&quot;&gt;&lt;div style=&quot;line-height: 19px;&quot;&gt;&lt;div&gt;&lt;span style=&quot;color: #ec8e2c;&quot;&gt;create&lt;/span&gt; &lt;span style=&quot;color: #ec8e2c;&quot;&gt;table&lt;/span&gt; orders (&lt;/div&gt;&lt;div&gt;order_id &lt;span style=&quot;color: #79c0ff;&quot;&gt;UUID&lt;/span&gt; &lt;span style=&quot;color: #ec8e2c;&quot;&gt;DEFAULT&lt;/span&gt; gen_random_uuid() &lt;span style=&quot;color: #ec8e2c;&quot;&gt;PRIMARY&lt;/span&gt; &lt;span style=&quot;color: #ec8e2c;&quot;&gt;KEY&lt;/span&gt;,&lt;/div&gt;&lt;div&gt;customer_id &lt;span style=&quot;color: #79c0ff;&quot;&gt;UUID&lt;/span&gt; &lt;span style=&quot;color: #ec8e2c;&quot;&gt;REFERENCES&lt;/span&gt; &lt;span style=&quot;color: #ec8e2c;&quot;&gt;account&lt;/span&gt;(&lt;span style=&quot;color: #79c0ff;&quot;&gt;user_id&lt;/span&gt;),&lt;/div&gt;&lt;div&gt;product_id &lt;span style=&quot;color: #79c0ff;&quot;&gt;UUID&lt;/span&gt; &lt;span style=&quot;color: #ec8e2c;&quot;&gt;REFERENCES&lt;/span&gt; items(item_id),&lt;/div&gt;&lt;div&gt;order_date &lt;span style=&quot;color: #ec8e2c;&quot;&gt;DATE&lt;/span&gt;,&lt;/div&gt;&lt;div&gt;transaction_id &lt;span style=&quot;color: #79c0ff;&quot;&gt;UUID&lt;/span&gt; &lt;span style=&quot;color: #ec8e2c;&quot;&gt;REFERENCES&lt;/span&gt; transactions(transaction_id),&lt;/div&gt;&lt;div&gt;quantity &lt;span style=&quot;color: #ec8e2c;&quot;&gt;INT&lt;/span&gt;,&lt;/div&gt;&lt;div&gt;unit_price &lt;span style=&quot;color: #ec8e2c;&quot;&gt;INT&lt;/span&gt;,&lt;/div&gt;&lt;div&gt;total_price &lt;span style=&quot;color: #ec8e2c;&quot;&gt;INT&lt;/span&gt;,&lt;/div&gt;&lt;div&gt;shipping_address &lt;span style=&quot;color: #ec8e2c;&quot;&gt;VARCHAR&lt;/span&gt;(&lt;span style=&quot;color: #79c0ff;&quot;&gt;50&lt;/span&gt;),&lt;/div&gt;&lt;div&gt;shipping_city &lt;span style=&quot;color: #ec8e2c;&quot;&gt;VARCHAR&lt;/span&gt;(&lt;span style=&quot;color: #79c0ff;&quot;&gt;50&lt;/span&gt;),&lt;/div&gt;&lt;div&gt;shipping_state &lt;span style=&quot;color: #ec8e2c;&quot;&gt;VARCHAR&lt;/span&gt;(&lt;span style=&quot;color: #79c0ff;&quot;&gt;50&lt;/span&gt;),&lt;/div&gt;&lt;div&gt;shipping_zip_code &lt;span style=&quot;color: #ec8e2c;&quot;&gt;VARCHAR&lt;/span&gt;(&lt;span style=&quot;color: #79c0ff;&quot;&gt;50&lt;/span&gt;),&lt;/div&gt;&lt;div&gt;shipping_country &lt;span style=&quot;color: #ec8e2c;&quot;&gt;VARCHAR&lt;/span&gt;(&lt;span style=&quot;color: #79c0ff;&quot;&gt;50&lt;/span&gt;),&lt;/div&gt;&lt;div&gt;shipping_method &lt;span style=&quot;color: #ec8e2c;&quot;&gt;VARCHAR&lt;/span&gt;(&lt;span style=&quot;color: #79c0ff;&quot;&gt;8&lt;/span&gt;),&lt;/div&gt;&lt;div&gt;order_status &lt;span style=&quot;color: #ec8e2c;&quot;&gt;VARCHAR&lt;/span&gt;(&lt;span style=&quot;color: #79c0ff;&quot;&gt;10&lt;/span&gt;),&lt;/div&gt;&lt;div&gt;estimated_delivery_date &lt;span style=&quot;color: #ec8e2c;&quot;&gt;DATE&lt;/span&gt;,&lt;/div&gt;&lt;div&gt;actual_delivery_date &lt;span style=&quot;color: #ec8e2c;&quot;&gt;DATE&lt;/span&gt;,&lt;/div&gt;&lt;div&gt;customer_feedback &lt;span style=&quot;color: #ec8e2c;&quot;&gt;TEXT&lt;/span&gt;,&lt;/div&gt;&lt;div&gt;customer_rating &lt;span style=&quot;color: #ec8e2c;&quot;&gt;INT&lt;/span&gt;,&lt;/div&gt;&lt;div&gt;customer_comments &lt;span style=&quot;color: #ec8e2c;&quot;&gt;TEXT&lt;/span&gt;&lt;/div&gt;&lt;div&gt;);&lt;/div&gt;&lt;/div&gt;&lt;/div&gt;&lt;/div&gt;" style="text;html=1;strokeColor=none;fillColor=none;align=center;verticalAlign=middle;whiteSpace=wrap;rounded=0;" parent="1" vertex="1">
                    <mxGeometry x="660" y="340" width="460" height="440" as="geometry"/>
                </mxCell>
                <mxCell id="36" value="&lt;div style=&quot;background-color: rgb(13, 17, 23); font-family: &amp;quot;Fira Code&amp;quot;, &amp;quot;Droid Sans Mono&amp;quot;, &amp;quot;monospace&amp;quot;, monospace, &amp;quot;Droid Sans Mono&amp;quot;, &amp;quot;monospace&amp;quot;, monospace; font-weight: normal; font-size: 14px; line-height: 19px;&quot;&gt;&lt;div style=&quot;color: rgb(201, 209, 217); line-height: 19px;&quot;&gt;&lt;div&gt;&lt;span style=&quot;color: #ec8e2c;&quot;&gt;create&lt;/span&gt; &lt;span style=&quot;color: #ec8e2c;&quot;&gt;table&lt;/span&gt; cart (&lt;/div&gt;&lt;div&gt;product_id &lt;span style=&quot;color: #79c0ff;&quot;&gt;UUID&lt;/span&gt; &lt;span style=&quot;color: #ec8e2c;&quot;&gt;REFERENCES&lt;/span&gt; items(item_id),&lt;/div&gt;&lt;div&gt;customer_id &lt;span style=&quot;color: #79c0ff;&quot;&gt;UUID&lt;/span&gt; &lt;span style=&quot;color: #ec8e2c;&quot;&gt;REFERENCES&lt;/span&gt; &lt;span style=&quot;color: #ec8e2c;&quot;&gt;account&lt;/span&gt;(&lt;span style=&quot;color: #79c0ff;&quot;&gt;user_id&lt;/span&gt;),&lt;/div&gt;&lt;div&gt;quantity &lt;span style=&quot;color: #ec8e2c;&quot;&gt;INT&lt;/span&gt; &lt;span style=&quot;color: #ec8e2c;&quot;&gt;DEFAULT&lt;/span&gt; &lt;span style=&quot;color: #79c0ff;&quot;&gt;1&lt;/span&gt;&lt;/div&gt;&lt;div&gt;);&lt;/div&gt;&lt;/div&gt;&lt;/div&gt;" style="text;html=1;strokeColor=none;fillColor=none;align=center;verticalAlign=middle;whiteSpace=wrap;rounded=0;" parent="1" vertex="1">
                    <mxGeometry x="350" y="340" width="320" height="140" as="geometry"/>
                </mxCell>
            </root>
        </mxGraphModel>
    </diagram>
</mxfile>